<svg xmlns="http://www.w3.org/2000/svg" xmlns:xlink="http://www.w3.org/1999/xlink" width="600" zoomAndPan="magnify" viewBox="0 0 450 299.999988" height="400" preserveAspectRatio="xMidYMid meet" version="1.0"><defs><g></g><clipPath id="4325abfe68"><path d="M 8.675781 110.960938 L 85.253906 110.960938 L 85.253906 126.816406 L 8.675781 126.816406 Z M 39.03125 126.816406 L 85.253906 126.816406 L 85.253906 126.824219 L 39.03125 126.824219 Z M 39.03125 126.824219 L 54.894531 126.824219 L 54.894531 214.039062 L 39.03125 214.039062 Z M 39.03125 126.824219 " clip-rule="nonzero"></path></clipPath><clipPath id="1ed35a74fb"><path d="M 195 132 L 274 132 L 274 215 L 195 215 Z M 195 132 " clip-rule="nonzero"></path></clipPath><clipPath id="42e9c4036c"><path d="M 195.972656 214.039062 L 195.972656 134.75 L 211.828125 134.75 L 211.828125 141.320312 C 217.160156 135.605469 224.832031 132.746094 234.828125 132.746094 C 246.78125 132.746094 256.257812 136.554688 263.257812 144.179688 C 270.210938 151.753906 273.683594 161.824219 273.683594 174.398438 L 273.683594 214.046875 L 257.839844 214.046875 L 257.839844 174.398438 C 257.839844 165.921875 255.765625 159.417969 251.625 154.898438 C 247.769531 150.707031 242.167969 148.609375 234.835938 148.609375 C 227.503906 148.609375 221.90625 150.707031 218.050781 154.898438 C 213.910156 159.417969 211.835938 165.898438 211.835938 174.324219 L 211.835938 214.039062 Z M 195.972656 214.039062 " clip-rule="nonzero"></path></clipPath><clipPath id="6929c53ed0"><path d="M 293 110 L 334 110 L 334 215 L 293 215 Z M 293 110 " clip-rule="nonzero"></path></clipPath><clipPath id="ef2f8c8fd5"><path d="M 305.761719 214.039062 L 305.761719 150.601562 L 293.835938 150.601562 L 293.835938 134.75 L 305.761719 134.75 L 305.761719 110.960938 L 321.625 110.960938 L 321.625 134.757812 L 333.476562 134.757812 L 333.476562 150.613281 L 321.625 150.613281 L 321.625 214.046875 Z M 305.761719 214.039062 " clip-rule="nonzero"></path></clipPath><clipPath id="5d32299d6f"><path d="M 87 26 L 434 26 L 434 217 L 87 217 Z M 87 26 " clip-rule="nonzero"></path></clipPath><clipPath id="aceb28c261"><path d="M 131.328125 216.042969 C 119.800781 216.042969 109.988281 211.992188 101.894531 203.898438 C 101.5625 203.566406 101.269531 203.234375 100.972656 202.882812 C 96.703125 198.015625 93.582031 192.222656 91.289062 186.179688 C 89.757812 182.144531 88.664062 177.9375 88.097656 173.605469 C 87.125 167.472656 87.214844 161.207031 88.203125 155.074219 C 90.714844 139.511719 99.15625 124.808594 111.8125 115.425781 C 122.214844 107.324219 136.066406 102.84375 150.804688 102.84375 L 152.117188 102.84375 L 152.109375 101.539062 C 151.972656 79.566406 161.546875 58.234375 177.726562 44.46875 C 190.675781 32.875 208.5625 26.214844 226.742188 26.214844 C 236.945312 26.214844 247.085938 28.332031 256.054688 32.332031 C 271.351562 38.878906 284.777344 51.574219 292.886719 67.164062 L 293.527344 68.394531 L 294.710938 67.679688 C 305.128906 61.394531 317.703125 57.925781 330.105469 57.925781 C 341.441406 57.925781 352.441406 60.714844 361.921875 65.996094 C 369.207031 69.820312 375.65625 75.214844 381 81.625 C 384.144531 85.382812 386.90625 89.484375 389.21875 93.851562 C 391.527344 98.226562 393.375 102.859375 394.71875 107.640625 L 395.398438 107.632812 C 395.601562 107.632812 395.8125 107.632812 396.015625 107.632812 C 407.121094 107.632812 416.964844 111.375 426.046875 118.925781 C 428.828125 121.234375 431.652344 124.207031 433.929688 127.132812 L 413.726562 127.132812 C 412.152344 125.972656 409.542969 124.363281 405.046875 123.21875 C 405.015625 123.210938 404.976562 123.203125 404.941406 123.195312 C 401.824219 122.410156 398.03125 121.867188 393.542969 121.867188 C 389.800781 121.867188 385.570312 122.246094 380.832031 123.179688 C 380.53125 115.375 378.78125 107.039062 374.15625 99.472656 C 365.453125 83.925781 347.996094 73.917969 329.636719 73.917969 C 325.027344 73.917969 320.503906 74.566406 316.210938 75.839844 C 305.046875 78.609375 296.023438 86.332031 287.921875 94.273438 L 285.8125 96.328125 L 285.132812 93.460938 C 280.515625 73.984375 270.535156 58.90625 257.035156 51.007812 C 248.300781 45.320312 237.914062 42.339844 226.929688 42.339844 C 208.230469 42.339844 190.246094 51.179688 180.003906 65.414062 C 168.90625 79.421875 165.566406 99.433594 170.808594 120.390625 L 171.496094 123.144531 L 168.757812 122.402344 C 163.574219 120.984375 155.789062 119.113281 148.097656 119.113281 C 142.832031 119.113281 138.160156 119.9375 133.792969 121.648438 C 129.34375 123.121094 125.277344 125.375 121.613281 128.160156 C 118.300781 130.6875 115.359375 133.671875 112.847656 136.992188 C 105.3125 146.980469 101.945312 159.921875 104.179688 172.429688 C 104.609375 174.828125 105.183594 177.175781 105.984375 179.460938 C 107.875 184.832031 110.570312 190.066406 114.621094 194.09375 C 118.996094 198.445312 124.808594 200.171875 131.191406 200.203125 C 131.230469 200.203125 131.273438 200.210938 131.320312 200.210938 C 138.417969 200.210938 144.484375 197.707031 149.535156 192.707031 C 154.53125 187.660156 157.058594 181.585938 157.109375 174.496094 L 157.109375 174.421875 C 157.058594 167.324219 154.539062 161.257812 149.535156 156.210938 C 144.484375 151.210938 138.410156 148.707031 131.320312 148.707031 C 124.175781 148.707031 118.105469 151.203125 113.101562 156.210938 C 111.496094 157.8125 110.183594 159.53125 109.089844 161.339844 C 109.980469 150.5625 115.480469 140.265625 123.859375 133.425781 C 126.265625 133.023438 128.746094 132.789062 131.320312 132.789062 C 142.078125 132.789062 150.675781 136.667969 157.109375 144.429688 L 157.109375 134.789062 L 172.964844 134.789062 L 172.964844 214.039062 L 157.117188 214.039062 L 157.117188 204.472656 C 155.34375 206.601562 153.382812 208.417969 151.265625 209.957031 C 145.75 213.992188 139.113281 216.050781 131.328125 216.050781 Z M 131.328125 216.042969 " clip-rule="nonzero"></path></clipPath><clipPath id="3edd8ed3ef"><path d="M 351 132 L 435 132 L 435 217 L 351 217 Z M 351 132 " clip-rule="nonzero"></path></clipPath><clipPath id="6970a228d5"><path d="M 393.121094 200.1875 C 400.21875 200.1875 406.289062 197.683594 411.335938 192.683594 C 416.332031 187.636719 418.863281 181.558594 418.910156 174.472656 L 418.910156 174.398438 C 418.863281 167.300781 416.332031 161.234375 411.335938 156.183594 C 406.289062 151.1875 400.210938 148.683594 393.121094 148.683594 C 385.976562 148.683594 379.90625 151.179688 374.910156 156.183594 C 369.863281 161.234375 367.335938 167.308594 367.335938 174.398438 C 367.335938 181.542969 369.855469 187.636719 374.910156 192.683594 C 379.90625 197.683594 385.984375 200.1875 393.121094 200.1875 Z M 393.121094 216.050781 C 381.59375 216.050781 371.78125 212 363.6875 203.90625 C 355.546875 195.761719 351.472656 185.925781 351.472656 174.398438 C 351.472656 162.917969 355.546875 153.105469 363.6875 144.964844 C 371.78125 136.820312 381.59375 132.746094 393.121094 132.746094 C 403.882812 132.746094 412.484375 136.628906 418.910156 144.390625 L 418.910156 134.75 L 434.765625 134.75 L 434.765625 214.039062 L 418.910156 214.039062 L 418.910156 204.472656 C 412.484375 212.183594 403.882812 216.050781 393.121094 216.050781 Z M 393.121094 216.050781 " clip-rule="nonzero"></path></clipPath></defs><rect x="-45" width="540" fill="#ffffff" y="-29.999999" height="359.999986" fill-opacity="1"></rect><rect x="-45" width="540" fill="#ffffff" y="-29.999999" height="359.999986" fill-opacity="1"></rect><rect x="-45" width="540" fill="#1b98d0" y="-29.999999" height="359.999986" fill-opacity="1"></rect><g fill="#ffffff" fill-opacity="1"><g transform="translate(16.351707, 242.634369)"><g><path d="M 3.046875 -21.59375 L 5.515625 -21.59375 L 13.390625 -9.8125 L 21.25 -21.59375 L 23.71875 -21.59375 L 23.71875 0 L 21.28125 0 L 21.28125 -17.484375 L 13.421875 -5.921875 L 13.296875 -5.921875 L 5.421875 -17.453125 L 5.421875 0 L 3.046875 0 Z M 3.046875 -21.59375 "></path></g></g></g><g fill="#ffffff" fill-opacity="1"><g transform="translate(46.815042, 242.634369)"><g><path d="M 13.078125 0.375 C 11.429688 0.375 9.929688 0.078125 8.578125 -0.515625 C 7.234375 -1.117188 6.078125 -1.925781 5.109375 -2.9375 C 4.148438 -3.957031 3.40625 -5.140625 2.875 -6.484375 C 2.351562 -7.835938 2.09375 -9.253906 2.09375 -10.734375 L 2.09375 -10.796875 C 2.09375 -12.273438 2.359375 -13.691406 2.890625 -15.046875 C 3.429688 -16.410156 4.179688 -17.597656 5.140625 -18.609375 C 6.109375 -19.628906 7.269531 -20.441406 8.625 -21.046875 C 9.988281 -21.648438 11.492188 -21.953125 13.140625 -21.953125 C 14.785156 -21.953125 16.28125 -21.65625 17.625 -21.0625 C 18.96875 -20.46875 20.125 -19.660156 21.09375 -18.640625 C 22.0625 -17.628906 22.804688 -16.445312 23.328125 -15.09375 C 23.859375 -13.75 24.125 -12.335938 24.125 -10.859375 L 24.125 -10.796875 C 24.125 -9.316406 23.851562 -7.894531 23.3125 -6.53125 C 22.78125 -5.175781 22.03125 -3.988281 21.0625 -2.96875 C 20.09375 -1.957031 18.929688 -1.144531 17.578125 -0.53125 C 16.222656 0.0703125 14.722656 0.375 13.078125 0.375 Z M 13.140625 -1.875 C 14.367188 -1.875 15.503906 -2.101562 16.546875 -2.5625 C 17.585938 -3.03125 18.476562 -3.664062 19.21875 -4.46875 C 19.957031 -5.269531 20.535156 -6.207031 20.953125 -7.28125 C 21.378906 -8.351562 21.59375 -9.503906 21.59375 -10.734375 L 21.59375 -10.796875 C 21.59375 -12.023438 21.378906 -13.179688 20.953125 -14.265625 C 20.535156 -15.347656 19.945312 -16.289062 19.1875 -17.09375 C 18.425781 -17.894531 17.523438 -18.53125 16.484375 -19 C 15.441406 -19.46875 14.304688 -19.703125 13.078125 -19.703125 C 11.847656 -19.703125 10.710938 -19.472656 9.671875 -19.015625 C 8.628906 -18.554688 7.738281 -17.925781 7 -17.125 C 6.257812 -16.320312 5.675781 -15.382812 5.25 -14.3125 C 4.832031 -13.238281 4.625 -12.085938 4.625 -10.859375 L 4.625 -10.796875 C 4.625 -9.554688 4.832031 -8.394531 5.25 -7.3125 C 5.675781 -6.238281 6.269531 -5.300781 7.03125 -4.5 C 7.789062 -3.695312 8.6875 -3.054688 9.71875 -2.578125 C 10.757812 -2.109375 11.898438 -1.875 13.140625 -1.875 Z M 13.140625 -1.875 "></path></g></g></g><g fill="#ffffff" fill-opacity="1"><g transform="translate(76.723407, 242.634369)"><g><path d="M 3.046875 -21.59375 L 12.34375 -21.59375 C 13.675781 -21.59375 14.859375 -21.398438 15.890625 -21.015625 C 16.929688 -20.640625 17.789062 -20.113281 18.46875 -19.4375 C 19.007812 -18.894531 19.421875 -18.265625 19.703125 -17.546875 C 19.992188 -16.828125 20.140625 -16.035156 20.140625 -15.171875 L 20.140625 -15.109375 C 20.140625 -14.203125 19.992188 -13.394531 19.703125 -12.6875 C 19.421875 -11.976562 19.015625 -11.363281 18.484375 -10.84375 C 17.960938 -10.320312 17.34375 -9.890625 16.625 -9.546875 C 15.90625 -9.203125 15.125 -8.960938 14.28125 -8.828125 L 20.90625 0 L 17.921875 0 L 11.65625 -8.390625 L 5.484375 -8.390625 L 5.484375 0 L 3.046875 0 Z M 12.125 -10.578125 C 12.925781 -10.578125 13.664062 -10.679688 14.34375 -10.890625 C 15.019531 -11.097656 15.601562 -11.390625 16.09375 -11.765625 C 16.59375 -12.148438 16.976562 -12.613281 17.25 -13.15625 C 17.53125 -13.695312 17.671875 -14.316406 17.671875 -15.015625 L 17.671875 -15.078125 C 17.671875 -16.421875 17.1875 -17.46875 16.21875 -18.21875 C 15.257812 -18.96875 13.90625 -19.34375 12.15625 -19.34375 L 5.484375 -19.34375 L 5.484375 -10.578125 Z M 12.125 -10.578125 "></path></g></g></g><g fill="#ffffff" fill-opacity="1"><g transform="translate(102.716108, 242.634369)"><g><path d="M 8.671875 -19.34375 L 1.390625 -19.34375 L 1.390625 -21.59375 L 18.390625 -21.59375 L 18.390625 -19.34375 L 11.109375 -19.34375 L 11.109375 0 L 8.671875 0 Z M 8.671875 -19.34375 "></path></g></g></g><g fill="#ffffff" fill-opacity="1"><g transform="translate(126.180579, 242.634369)"><g><path d="M 13.078125 0.375 C 11.367188 0.375 9.84375 0.0859375 8.5 -0.484375 C 7.15625 -1.066406 6.003906 -1.859375 5.046875 -2.859375 C 4.085938 -3.867188 3.351562 -5.046875 2.84375 -6.390625 C 2.34375 -7.742188 2.09375 -9.191406 2.09375 -10.734375 L 2.09375 -10.796875 C 2.09375 -12.273438 2.351562 -13.6875 2.875 -15.03125 C 3.40625 -16.382812 4.144531 -17.570312 5.09375 -18.59375 C 6.039062 -19.625 7.175781 -20.441406 8.5 -21.046875 C 9.820312 -21.648438 11.296875 -21.953125 12.921875 -21.953125 C 13.828125 -21.953125 14.65625 -21.890625 15.40625 -21.765625 C 16.15625 -21.648438 16.851562 -21.46875 17.5 -21.21875 C 18.144531 -20.96875 18.75 -20.660156 19.3125 -20.296875 C 19.882812 -19.941406 20.4375 -19.539062 20.96875 -19.09375 L 19.40625 -17.234375 C 18.988281 -17.609375 18.550781 -17.941406 18.09375 -18.234375 C 17.644531 -18.535156 17.160156 -18.796875 16.640625 -19.015625 C 16.117188 -19.234375 15.539062 -19.398438 14.90625 -19.515625 C 14.28125 -19.640625 13.585938 -19.703125 12.828125 -19.703125 C 11.640625 -19.703125 10.539062 -19.46875 9.53125 -19 C 8.519531 -18.53125 7.65625 -17.894531 6.9375 -17.09375 C 6.21875 -16.289062 5.648438 -15.347656 5.234375 -14.265625 C 4.828125 -13.179688 4.625 -12.046875 4.625 -10.859375 L 4.625 -10.796875 C 4.625 -9.503906 4.820312 -8.3125 5.21875 -7.21875 C 5.625 -6.125 6.195312 -5.175781 6.9375 -4.375 C 7.675781 -3.570312 8.570312 -2.941406 9.625 -2.484375 C 10.675781 -2.035156 11.859375 -1.8125 13.171875 -1.8125 C 14.398438 -1.8125 15.5625 -2.019531 16.65625 -2.4375 C 17.75 -2.863281 18.664062 -3.378906 19.40625 -3.984375 L 19.40625 -9.34375 L 12.828125 -9.34375 L 12.828125 -11.53125 L 21.75 -11.53125 L 21.75 -2.9375 C 20.738281 -2.03125 19.5 -1.25 18.03125 -0.59375 C 16.5625 0.0507812 14.910156 0.375 13.078125 0.375 Z M 13.078125 0.375 "></path></g></g></g><g fill="#ffffff" fill-opacity="1"><g transform="translate(154.054025, 242.634369)"><g><path d="M 11.046875 -21.75 L 13.328125 -21.75 L 23.15625 0 L 20.546875 0 L 18.015625 -5.703125 L 6.265625 -5.703125 L 3.703125 0 L 1.203125 0 Z M 17.0625 -7.890625 L 12.15625 -18.90625 L 7.21875 -7.890625 Z M 17.0625 -7.890625 "></path></g></g></g><g fill="#ffffff" fill-opacity="1"><g transform="translate(182.112464, 242.634369)"><g><path d="M 13.078125 0.375 C 11.367188 0.375 9.84375 0.0859375 8.5 -0.484375 C 7.15625 -1.066406 6.003906 -1.859375 5.046875 -2.859375 C 4.085938 -3.867188 3.351562 -5.046875 2.84375 -6.390625 C 2.34375 -7.742188 2.09375 -9.191406 2.09375 -10.734375 L 2.09375 -10.796875 C 2.09375 -12.273438 2.351562 -13.6875 2.875 -15.03125 C 3.40625 -16.382812 4.144531 -17.570312 5.09375 -18.59375 C 6.039062 -19.625 7.175781 -20.441406 8.5 -21.046875 C 9.820312 -21.648438 11.296875 -21.953125 12.921875 -21.953125 C 13.828125 -21.953125 14.65625 -21.890625 15.40625 -21.765625 C 16.15625 -21.648438 16.851562 -21.46875 17.5 -21.21875 C 18.144531 -20.96875 18.75 -20.660156 19.3125 -20.296875 C 19.882812 -19.941406 20.4375 -19.539062 20.96875 -19.09375 L 19.40625 -17.234375 C 18.988281 -17.609375 18.550781 -17.941406 18.09375 -18.234375 C 17.644531 -18.535156 17.160156 -18.796875 16.640625 -19.015625 C 16.117188 -19.234375 15.539062 -19.398438 14.90625 -19.515625 C 14.28125 -19.640625 13.585938 -19.703125 12.828125 -19.703125 C 11.640625 -19.703125 10.539062 -19.46875 9.53125 -19 C 8.519531 -18.53125 7.65625 -17.894531 6.9375 -17.09375 C 6.21875 -16.289062 5.648438 -15.347656 5.234375 -14.265625 C 4.828125 -13.179688 4.625 -12.046875 4.625 -10.859375 L 4.625 -10.796875 C 4.625 -9.503906 4.820312 -8.3125 5.21875 -7.21875 C 5.625 -6.125 6.195312 -5.175781 6.9375 -4.375 C 7.675781 -3.570312 8.570312 -2.941406 9.625 -2.484375 C 10.675781 -2.035156 11.859375 -1.8125 13.171875 -1.8125 C 14.398438 -1.8125 15.5625 -2.019531 16.65625 -2.4375 C 17.75 -2.863281 18.664062 -3.378906 19.40625 -3.984375 L 19.40625 -9.34375 L 12.828125 -9.34375 L 12.828125 -11.53125 L 21.75 -11.53125 L 21.75 -2.9375 C 20.738281 -2.03125 19.5 -1.25 18.03125 -0.59375 C 16.5625 0.0507812 14.910156 0.375 13.078125 0.375 Z M 13.078125 0.375 "></path></g></g></g><g fill="#ffffff" fill-opacity="1"><g transform="translate(209.985909, 242.634369)"><g><path d="M 3.046875 -21.59375 L 18.65625 -21.59375 L 18.65625 -19.375 L 5.484375 -19.375 L 5.484375 -12 L 17.265625 -12 L 17.265625 -9.78125 L 5.484375 -9.78125 L 5.484375 -2.21875 L 18.8125 -2.21875 L 18.8125 0 L 3.046875 0 Z M 3.046875 -21.59375 "></path></g></g></g><g fill="#ffffff" fill-opacity="1"><g transform="translate(234.355596, 242.634369)"><g></g></g></g><g fill="#ffffff" fill-opacity="1"><g transform="translate(252.992595, 242.634369)"><g><path d="M 3.046875 -21.59375 L 12.25 -21.59375 C 13.476562 -21.59375 14.570312 -21.421875 15.53125 -21.078125 C 16.488281 -20.742188 17.273438 -20.273438 17.890625 -19.671875 C 18.816406 -18.710938 19.28125 -17.5625 19.28125 -16.21875 L 19.28125 -16.15625 C 19.28125 -15.457031 19.179688 -14.835938 18.984375 -14.296875 C 18.785156 -13.753906 18.519531 -13.28125 18.1875 -12.875 C 17.863281 -12.476562 17.5 -12.140625 17.09375 -11.859375 C 16.695312 -11.578125 16.285156 -11.347656 15.859375 -11.171875 C 16.492188 -10.984375 17.09375 -10.738281 17.65625 -10.4375 C 18.21875 -10.144531 18.703125 -9.789062 19.109375 -9.375 C 19.523438 -8.96875 19.859375 -8.476562 20.109375 -7.90625 C 20.359375 -7.34375 20.484375 -6.691406 20.484375 -5.953125 L 20.484375 -5.890625 C 20.484375 -4.960938 20.296875 -4.132812 19.921875 -3.40625 C 19.554688 -2.675781 19.023438 -2.054688 18.328125 -1.546875 C 17.640625 -1.046875 16.8125 -0.660156 15.84375 -0.390625 C 14.882812 -0.128906 13.816406 0 12.640625 0 L 3.046875 0 Z M 16.8125 -15.890625 C 16.8125 -16.953125 16.398438 -17.800781 15.578125 -18.4375 C 14.753906 -19.082031 13.570312 -19.40625 12.03125 -19.40625 L 5.453125 -19.40625 L 5.453125 -11.96875 L 11.84375 -11.96875 C 13.320312 -11.96875 14.519531 -12.289062 15.4375 -12.9375 C 16.351562 -13.582031 16.8125 -14.546875 16.8125 -15.828125 Z M 18.015625 -6.109375 C 18.015625 -7.273438 17.53125 -8.179688 16.5625 -8.828125 C 15.59375 -9.484375 14.164062 -9.8125 12.28125 -9.8125 L 5.453125 -9.8125 L 5.453125 -2.1875 L 12.703125 -2.1875 C 14.347656 -2.1875 15.644531 -2.523438 16.59375 -3.203125 C 17.539062 -3.878906 18.015625 -4.828125 18.015625 -6.046875 Z M 18.015625 -6.109375 "></path></g></g></g><g fill="#ffffff" fill-opacity="1"><g transform="translate(278.954465, 242.634369)"><g><path d="M 3.046875 -21.59375 L 12.34375 -21.59375 C 13.675781 -21.59375 14.859375 -21.398438 15.890625 -21.015625 C 16.929688 -20.640625 17.789062 -20.113281 18.46875 -19.4375 C 19.007812 -18.894531 19.421875 -18.265625 19.703125 -17.546875 C 19.992188 -16.828125 20.140625 -16.035156 20.140625 -15.171875 L 20.140625 -15.109375 C 20.140625 -14.203125 19.992188 -13.394531 19.703125 -12.6875 C 19.421875 -11.976562 19.015625 -11.363281 18.484375 -10.84375 C 17.960938 -10.320312 17.34375 -9.890625 16.625 -9.546875 C 15.90625 -9.203125 15.125 -8.960938 14.28125 -8.828125 L 20.90625 0 L 17.921875 0 L 11.65625 -8.390625 L 5.484375 -8.390625 L 5.484375 0 L 3.046875 0 Z M 12.125 -10.578125 C 12.925781 -10.578125 13.664062 -10.679688 14.34375 -10.890625 C 15.019531 -11.097656 15.601562 -11.390625 16.09375 -11.765625 C 16.59375 -12.148438 16.976562 -12.613281 17.25 -13.15625 C 17.53125 -13.695312 17.671875 -14.316406 17.671875 -15.015625 L 17.671875 -15.078125 C 17.671875 -16.421875 17.1875 -17.46875 16.21875 -18.21875 C 15.257812 -18.96875 13.90625 -19.34375 12.15625 -19.34375 L 5.484375 -19.34375 L 5.484375 -10.578125 Z M 12.125 -10.578125 "></path></g></g></g><g fill="#ffffff" fill-opacity="1"><g transform="translate(304.947166, 242.634369)"><g><path d="M 13.078125 0.375 C 11.429688 0.375 9.929688 0.078125 8.578125 -0.515625 C 7.234375 -1.117188 6.078125 -1.925781 5.109375 -2.9375 C 4.148438 -3.957031 3.40625 -5.140625 2.875 -6.484375 C 2.351562 -7.835938 2.09375 -9.253906 2.09375 -10.734375 L 2.09375 -10.796875 C 2.09375 -12.273438 2.359375 -13.691406 2.890625 -15.046875 C 3.429688 -16.410156 4.179688 -17.597656 5.140625 -18.609375 C 6.109375 -19.628906 7.269531 -20.441406 8.625 -21.046875 C 9.988281 -21.648438 11.492188 -21.953125 13.140625 -21.953125 C 14.785156 -21.953125 16.28125 -21.65625 17.625 -21.0625 C 18.96875 -20.46875 20.125 -19.660156 21.09375 -18.640625 C 22.0625 -17.628906 22.804688 -16.445312 23.328125 -15.09375 C 23.859375 -13.75 24.125 -12.335938 24.125 -10.859375 L 24.125 -10.796875 C 24.125 -9.316406 23.851562 -7.894531 23.3125 -6.53125 C 22.78125 -5.175781 22.03125 -3.988281 21.0625 -2.96875 C 20.09375 -1.957031 18.929688 -1.144531 17.578125 -0.53125 C 16.222656 0.0703125 14.722656 0.375 13.078125 0.375 Z M 13.140625 -1.875 C 14.367188 -1.875 15.503906 -2.101562 16.546875 -2.5625 C 17.585938 -3.03125 18.476562 -3.664062 19.21875 -4.46875 C 19.957031 -5.269531 20.535156 -6.207031 20.953125 -7.28125 C 21.378906 -8.351562 21.59375 -9.503906 21.59375 -10.734375 L 21.59375 -10.796875 C 21.59375 -12.023438 21.378906 -13.179688 20.953125 -14.265625 C 20.535156 -15.347656 19.945312 -16.289062 19.1875 -17.09375 C 18.425781 -17.894531 17.523438 -18.53125 16.484375 -19 C 15.441406 -19.46875 14.304688 -19.703125 13.078125 -19.703125 C 11.847656 -19.703125 10.710938 -19.472656 9.671875 -19.015625 C 8.628906 -18.554688 7.738281 -17.925781 7 -17.125 C 6.257812 -16.320312 5.675781 -15.382812 5.25 -14.3125 C 4.832031 -13.238281 4.625 -12.085938 4.625 -10.859375 L 4.625 -10.796875 C 4.625 -9.554688 4.832031 -8.394531 5.25 -7.3125 C 5.675781 -6.238281 6.269531 -5.300781 7.03125 -4.5 C 7.789062 -3.695312 8.6875 -3.054688 9.71875 -2.578125 C 10.757812 -2.109375 11.898438 -1.875 13.140625 -1.875 Z M 13.140625 -1.875 "></path></g></g></g><g fill="#ffffff" fill-opacity="1"><g transform="translate(334.855531, 242.634369)"><g><path d="M 3.046875 -21.59375 L 5.484375 -21.59375 L 5.484375 -8.703125 L 17.890625 -21.59375 L 21.0625 -21.59375 L 11.78125 -12.15625 L 21.4375 0 L 18.390625 0 L 10.078125 -10.453125 L 5.484375 -5.796875 L 5.484375 0 L 3.046875 0 Z M 3.046875 -21.59375 "></path></g></g></g><g fill="#ffffff" fill-opacity="1"><g transform="translate(360.724898, 242.634369)"><g><path d="M 3.046875 -21.59375 L 18.65625 -21.59375 L 18.65625 -19.375 L 5.484375 -19.375 L 5.484375 -12 L 17.265625 -12 L 17.265625 -9.78125 L 5.484375 -9.78125 L 5.484375 -2.21875 L 18.8125 -2.21875 L 18.8125 0 L 3.046875 0 Z M 3.046875 -21.59375 "></path></g></g></g><g fill="#ffffff" fill-opacity="1"><g transform="translate(385.083497, 242.634369)"><g><path d="M 3.046875 -21.59375 L 12.34375 -21.59375 C 13.675781 -21.59375 14.859375 -21.398438 15.890625 -21.015625 C 16.929688 -20.640625 17.789062 -20.113281 18.46875 -19.4375 C 19.007812 -18.894531 19.421875 -18.265625 19.703125 -17.546875 C 19.992188 -16.828125 20.140625 -16.035156 20.140625 -15.171875 L 20.140625 -15.109375 C 20.140625 -14.203125 19.992188 -13.394531 19.703125 -12.6875 C 19.421875 -11.976562 19.015625 -11.363281 18.484375 -10.84375 C 17.960938 -10.320312 17.34375 -9.890625 16.625 -9.546875 C 15.90625 -9.203125 15.125 -8.960938 14.28125 -8.828125 L 20.90625 0 L 17.921875 0 L 11.65625 -8.390625 L 5.484375 -8.390625 L 5.484375 0 L 3.046875 0 Z M 12.125 -10.578125 C 12.925781 -10.578125 13.664062 -10.679688 14.34375 -10.890625 C 15.019531 -11.097656 15.601562 -11.390625 16.09375 -11.765625 C 16.59375 -12.148438 16.976562 -12.613281 17.25 -13.15625 C 17.53125 -13.695312 17.671875 -14.316406 17.671875 -15.015625 L 17.671875 -15.078125 C 17.671875 -16.421875 17.1875 -17.46875 16.21875 -18.21875 C 15.257812 -18.96875 13.90625 -19.34375 12.15625 -19.34375 L 5.484375 -19.34375 L 5.484375 -10.578125 Z M 12.125 -10.578125 "></path></g></g></g><g fill="#ffffff" fill-opacity="1"><g transform="translate(411.076197, 242.634369)"><g><path d="M 10.453125 0.3125 C 8.722656 0.3125 7.144531 0.03125 5.71875 -0.53125 C 4.289062 -1.101562 2.929688 -1.972656 1.640625 -3.140625 L 3.140625 -4.9375 C 4.273438 -3.90625 5.414062 -3.132812 6.5625 -2.625 C 7.71875 -2.125 9.046875 -1.875 10.546875 -1.875 C 12.003906 -1.875 13.171875 -2.21875 14.046875 -2.90625 C 14.921875 -3.601562 15.359375 -4.484375 15.359375 -5.546875 L 15.359375 -5.609375 C 15.359375 -6.109375 15.273438 -6.554688 15.109375 -6.953125 C 14.941406 -7.359375 14.65625 -7.722656 14.25 -8.046875 C 13.84375 -8.378906 13.269531 -8.675781 12.53125 -8.9375 C 11.800781 -9.207031 10.875 -9.46875 9.75 -9.71875 C 8.507812 -9.976562 7.429688 -10.285156 6.515625 -10.640625 C 5.609375 -10.992188 4.851562 -11.414062 4.25 -11.90625 C 3.65625 -12.394531 3.210938 -12.96875 2.921875 -13.625 C 2.640625 -14.289062 2.5 -15.066406 2.5 -15.953125 L 2.5 -16.015625 C 2.5 -16.847656 2.671875 -17.625 3.015625 -18.34375 C 3.367188 -19.070312 3.863281 -19.695312 4.5 -20.21875 C 5.132812 -20.738281 5.882812 -21.148438 6.75 -21.453125 C 7.613281 -21.753906 8.5625 -21.90625 9.59375 -21.90625 C 11.175781 -21.90625 12.554688 -21.679688 13.734375 -21.234375 C 14.921875 -20.796875 16.070312 -20.132812 17.1875 -19.25 L 15.765625 -17.359375 C 14.753906 -18.179688 13.738281 -18.773438 12.71875 -19.140625 C 11.707031 -19.515625 10.644531 -19.703125 9.53125 -19.703125 C 8.113281 -19.703125 6.992188 -19.367188 6.171875 -18.703125 C 5.347656 -18.035156 4.9375 -17.207031 4.9375 -16.21875 L 4.9375 -16.15625 C 4.9375 -15.644531 5.015625 -15.1875 5.171875 -14.78125 C 5.335938 -14.382812 5.632812 -14.015625 6.0625 -13.671875 C 6.5 -13.335938 7.097656 -13.03125 7.859375 -12.75 C 8.617188 -12.476562 9.597656 -12.21875 10.796875 -11.96875 C 13.203125 -11.4375 14.972656 -10.695312 16.109375 -9.75 C 17.253906 -8.800781 17.828125 -7.503906 17.828125 -5.859375 L 17.828125 -5.796875 C 17.828125 -4.867188 17.640625 -4.03125 17.265625 -3.28125 C 16.898438 -2.53125 16.394531 -1.890625 15.75 -1.359375 C 15.101562 -0.828125 14.328125 -0.414062 13.421875 -0.125 C 12.515625 0.164062 11.523438 0.3125 10.453125 0.3125 Z M 10.453125 0.3125 "></path></g></g></g><g clip-path="url(#4325abfe68)"><path fill="#ffffff" d="M 76.488281 86.578125 L -24.144531 122.761719 L 17.441406 238.421875 L 118.074219 202.238281 Z M 76.488281 86.578125 " fill-opacity="1" fill-rule="nonzero"></path></g><g clip-path="url(#1ed35a74fb)"><g clip-path="url(#42e9c4036c)"><path fill="#ffffff" d="M 264.789062 108.003906 L 170.085938 142.054688 L 204.871094 238.792969 L 299.570312 204.742188 Z M 264.789062 108.003906 " fill-opacity="1" fill-rule="nonzero"></path></g></g><g clip-path="url(#6929c53ed0)"><g clip-path="url(#ef2f8c8fd5)"><path fill="#ffffff" d="M 328.9375 98.339844 L 261.011719 122.761719 L 298.371094 226.671875 L 366.296875 202.246094 Z M 328.9375 98.339844 " fill-opacity="1" fill-rule="nonzero"></path></g></g><g clip-path="url(#5d32299d6f)"><g clip-path="url(#aceb28c261)"><path fill="#ffffff" d="M 394.230469 -84.203125 L 26.683594 47.949219 L 126.828125 326.46875 L 494.371094 194.316406 Z M 394.230469 -84.203125 " fill-opacity="1" fill-rule="nonzero"></path></g></g><g clip-path="url(#3edd8ed3ef)"><g clip-path="url(#6970a228d5)"><path fill="#ffffff" d="M 425.230469 106.226562 L 324.949219 142.28125 L 361.007812 242.570312 L 461.289062 206.511719 Z M 425.230469 106.226562 " fill-opacity="1" fill-rule="nonzero"></path></g></g></svg>